<svg width="187" height="40" viewBox="0 0 187 40" fill="none" xmlns="http://www.w3.org/2000/svg">
<path d="M30.2254 17.828C29.72 18.3364 29.3331 18.95 29.092 19.6249C28.851 20.3 28.7618 21.0199 28.8307 21.7333L28.8067 21.7093C28.8776 22.5492 28.7643 23.3943 28.4748 24.1859C28.1854 24.9773 27.7267 25.6961 27.1308 26.2921C26.5348 26.888 25.816 27.3468 25.0244 27.6361C24.233 27.9256 23.3878 28.0389 22.548 27.968L22.572 27.992C21.5675 27.8985 20.5586 28.1171 19.6827 28.618C18.807 29.1189 18.107 29.8777 17.6783 30.7911C17.2496 31.7044 17.113 32.7276 17.2871 33.7215C17.4614 34.7152 17.9378 35.6311 18.6515 36.3441C19.3652 37.0572 20.2815 37.5328 21.2754 37.706C22.2694 37.8793 23.2924 37.7417 24.2054 37.3123C25.1183 36.8827 25.8764 36.1821 26.3766 35.3059C26.8767 34.4296 27.0944 33.4205 27 32.416L27.0254 32.44C26.9544 31.6003 27.0676 30.7551 27.3571 29.9635C27.6466 29.172 28.1054 28.4532 28.7012 27.8572C29.2972 27.2613 30.016 26.8025 30.8075 26.5132C31.5991 26.2237 32.4442 26.1104 33.284 26.1813L33.2587 26.1573C34.0792 26.2311 34.9052 26.0965 35.66 25.7661C36.4147 25.4357 37.0739 24.9201 37.5763 24.2672C38.0787 23.6143 38.4083 22.8449 38.5342 22.0308C38.6602 21.2165 38.5786 20.3837 38.297 19.6093C38.0154 18.8351 37.5428 18.1444 36.9232 17.6013C36.3036 17.0583 35.557 16.6804 34.7524 16.5028C33.9479 16.3252 33.1115 16.3535 32.3208 16.5851C31.5302 16.8168 30.8108 17.2443 30.2294 17.828H30.2254Z" fill="#394149"/>
<path d="M20.3894 24.848L20.364 24.824C21.0778 24.8959 21.7986 24.8083 22.4744 24.5675C23.1502 24.3267 23.764 23.9388 24.2715 23.4317C24.7788 22.9247 25.1674 22.3111 25.4086 21.6355C25.6499 20.9599 25.738 20.2392 25.6667 19.5253L25.692 19.5493C25.6211 18.7095 25.7344 17.8644 26.0238 17.0728C26.3132 16.2813 26.772 15.5625 27.3679 14.9665C27.9639 14.3707 28.6827 13.9119 29.4742 13.6225C30.2658 13.333 31.1108 13.2198 31.9507 13.2907L31.9254 13.2667C32.93 13.3611 33.9392 13.1431 34.8155 12.6428C35.6919 12.1425 36.3924 11.384 36.8218 10.4708C37.2511 9.55765 37.3883 8.53428 37.2147 7.54027C37.0411 6.54625 36.5651 5.63001 35.8515 4.91649C35.138 4.20299 34.2218 3.72693 33.2278 3.55331C32.2338 3.37967 31.2104 3.51688 30.2972 3.94624C29.384 4.37559 28.6256 5.07619 28.1252 5.95247C27.6248 6.82873 27.407 7.83803 27.5014 8.84267L27.4774 8.81733C27.5484 9.65719 27.4354 10.5024 27.146 11.2941C26.8567 12.0857 26.3979 12.8046 25.802 13.4007C25.206 13.9965 24.4871 14.4553 23.6955 14.7447C22.9038 15.034 22.0586 15.1471 21.2187 15.076L21.2427 15.1013C20.529 15.0295 19.808 15.1171 19.1323 15.3579C18.4566 15.5985 17.8427 15.9865 17.3352 16.4936C16.8278 17.0007 16.4394 17.6143 16.198 18.2899C15.9568 18.9655 15.8687 19.6861 15.94 20.4L15.916 20.376C15.9867 21.2157 15.8732 22.0608 15.5838 22.8523C15.2942 23.6436 14.8355 24.3624 14.2396 24.9583C13.6437 25.5541 12.925 26.0128 12.1336 26.3024C11.3422 26.5919 10.4971 26.7053 9.65738 26.6347L9.68138 26.6587C8.67674 26.5643 7.66744 26.7821 6.79116 27.2825C5.9149 27.7829 5.2143 28.5413 4.78495 29.4545C4.35559 30.3677 4.21836 31.3911 4.392 32.3851C4.56564 33.3791 5.0417 34.2953 5.7552 35.0088C6.46872 35.7224 7.38496 36.1984 8.37898 36.372C9.37299 36.5456 10.3964 36.4084 11.3095 35.9791C12.2227 35.5497 12.9812 34.8492 13.4815 33.9729C13.9819 33.0965 14.1998 32.0873 14.1054 31.0827L14.1307 31.1067C14.0598 30.2668 14.1731 29.4217 14.4626 28.6301C14.7519 27.8387 15.2107 27.1199 15.8066 26.5239C16.4026 25.928 17.1214 25.4692 17.9128 25.1799C18.7044 24.8904 19.5495 24.7771 20.3894 24.848Z" fill="#006B6A"/>
<path d="M11.4532 22.172C11.9586 21.6637 12.3455 21.0501 12.5864 20.3751C12.8272 19.7 12.9161 18.98 12.8466 18.2667L12.8719 18.2907C12.801 17.4507 12.9142 16.6052 13.2039 15.8135C13.4935 15.0217 13.9524 14.3028 14.5487 13.7068C15.145 13.1108 15.864 12.6522 16.6559 12.3629C17.4478 12.0736 18.2933 11.9607 19.1333 12.032L19.1079 12.008C20.1122 12.1021 21.1211 11.8841 21.997 11.3838C22.8729 10.8835 23.573 10.1252 24.0022 9.21231C24.4312 8.29943 24.5683 7.27643 24.3947 6.28279C24.2211 5.28915 23.7451 4.37326 23.0319 3.66001C22.3187 2.94675 21.4027 2.47086 20.4091 2.29723C19.4155 2.12359 18.3925 2.26069 17.4797 2.68978C16.5667 3.11887 15.8085 3.8191 15.3082 4.69497C14.8078 5.57083 14.5898 6.57971 14.6839 7.58401L14.6599 7.56001C14.7308 8.39981 14.6175 9.24497 14.3281 10.0365C14.0386 10.828 13.5799 11.5468 12.984 12.1428C12.3881 12.7387 11.6692 13.1974 10.8777 13.4868C10.0862 13.7763 9.24105 13.8896 8.40125 13.8187L8.42525 13.8427C7.60468 13.7691 6.7788 13.9039 6.02416 14.2344C5.26952 14.5649 4.61052 15.0807 4.10824 15.7337C3.60596 16.3867 3.27665 17.156 3.15081 17.9701C3.02498 18.7844 3.1067 19.6172 3.3884 20.3913C3.67009 21.1656 4.14266 21.8561 4.7623 22.3991C5.38194 22.9421 6.12861 23.3199 6.93312 23.4975C7.73761 23.6749 8.57392 23.6465 9.36454 23.4149C10.1552 23.1832 10.8745 22.7557 11.4559 22.172H11.4532Z" fill="#394149"/>
</svg>
